<svg width="876" height="408" viewBox="0 0 876 408" fill="none" xmlns="http://www.w3.org/2000/svg">
<g clip-path="url(#clip0_0_3)">
<path d="M875.479 0V368.363C799.448 375.924 694.597 373.18 552.583 346.178C272.168 292.875 84.5879 340.077 -0.520813 371.837V0H875.479Z" fill="#0052F1"/>
<path d="M875.479 368.363V406.516C799.155 411.449 694.216 405.027 552.759 372.859C274.871 309.66 85.8512 349.914 -0.520813 378.639V371.837C84.5879 340.077 272.168 292.875 552.583 346.178C694.597 373.18 799.448 375.924 875.479 368.363Z" fill="white"/>
<path d="M290.738 59.725C295.732 59.725 299.551 61.5057 302.225 65.0378C304.369 67.8402 305.456 71.2555 305.456 75.2547C305.456 82.4357 303.047 90.6093 298.2 99.7753C293.969 107.686 288.681 114.78 282.336 121.085C278.164 125.142 274.903 127.186 272.523 127.186C270.966 127.186 269.497 126.398 268.175 124.85C267.206 123.741 266.736 122.486 266.736 121.085C266.736 118.487 268.998 115.539 273.552 112.211C279.956 107.482 285.038 102.315 288.858 96.681C294.439 88.5367 297.23 81.6768 297.23 76.0429C297.23 73.766 296.731 72.0437 295.732 70.9344C294.733 69.8251 293.235 69.2705 291.208 69.2705C287.124 69.2705 281.307 72.2188 273.787 78.1446C265.238 84.8002 256.189 93.8495 246.67 105.322C234.537 119.888 225.313 134.221 218.996 148.349C212.445 163.003 209.184 175.497 209.184 185.831C209.184 190.793 210.623 194.997 213.532 198.471C216.734 202.382 220.641 204.338 225.254 204.338C233.303 204.338 243.41 198.12 255.601 185.714C259.244 181.948 263.68 176.46 268.88 169.309C272.318 164.726 274.492 161.456 275.461 159.559C276.578 157.428 277.87 156.348 279.368 156.348C281.014 156.348 281.807 157.136 281.807 158.683C281.807 162.011 277.635 169.484 269.321 181.102C262.388 190.793 254.779 198.704 246.435 204.834C237.064 211.723 228.192 215.139 219.878 215.139C211.182 215.139 204.425 211.256 199.665 203.491C196.61 198.529 195.082 192.895 195.082 186.531C195.082 170.564 202.662 150.422 217.85 126.077C230.806 105.38 244.467 88.7118 258.833 76.0429C271.231 65.1546 281.895 59.725 290.738 59.725Z" fill="white"/>
<path d="M328.814 130.805C334.925 130.805 337.98 134.513 337.98 141.898C337.98 151.736 333.397 164.2 324.26 179.263C314.301 195.61 304.665 203.783 295.352 203.783C291.034 203.783 287.89 201.798 285.863 197.799C284.835 195.814 284.306 193.391 284.306 190.589C284.306 181.131 287.567 170.856 294.118 159.763C300.229 149.488 307.397 141.489 315.653 135.797C320.471 132.469 324.848 130.805 328.814 130.805ZM317.21 172.724C315.359 171.235 314.419 170.097 314.419 169.279C314.419 168.696 315.594 167.061 318.003 164.404C324.701 156.932 328.05 150.918 328.05 146.335C328.05 145.751 327.874 145.167 327.492 144.554C326.904 143.445 325.964 142.891 324.701 142.891C322.321 142.891 318.825 145.197 314.213 149.78C308.249 155.706 303.725 161.806 300.582 168.083C296.939 175.264 295.117 181.219 295.117 185.948C295.117 187.203 295.44 188.312 296.116 189.275C297.086 190.618 298.319 191.26 299.788 191.26C303.372 191.26 307.192 188.604 311.275 183.262C313.067 181.043 314.507 178.767 315.623 176.373C316.74 174.038 317.268 172.812 317.21 172.724Z" fill="white"/>
<path d="M357.045 165.543C354.812 171.323 353.138 175.964 352.021 179.525C350.905 183.087 350.347 185.539 350.347 186.969C350.347 188.808 351.228 189.742 353.02 189.742C355.693 189.742 359.16 187.232 363.391 182.211C365.388 179.759 368.385 175.38 372.322 169.017C373.879 166.506 375.524 165.251 377.228 165.251C379.167 165.251 380.136 166.185 380.136 168.024C380.136 171.206 376.464 177.628 369.09 187.319C361.422 197.449 354.313 202.528 347.761 202.528C344.941 202.528 342.62 201.36 340.828 198.967C339.565 197.274 338.919 195.201 338.919 192.749C338.919 188.604 340.182 182.882 342.708 175.555C345.235 168.228 348.995 159.325 353.99 148.816C366.798 122.136 379.842 100.125 393.18 82.8151C403.815 68.9201 412.628 61.9726 419.62 61.9726C421.853 61.9726 423.675 62.8192 425.085 64.5123C426.583 66.2053 427.318 68.1612 427.318 70.3797C427.318 80.7425 418.005 97.9653 399.408 122.077C391.065 132.79 381.106 143.533 369.501 154.246C366.505 157.019 362.333 160.785 357.045 165.543ZM364.977 147.882C380.459 134.717 394.296 118.078 406.488 97.9653C412.805 87.5441 415.978 80.6258 415.978 77.2396C415.978 75.6049 415.273 74.7875 413.862 74.7875C409.779 74.7875 402.317 82.8735 391.535 99.0746C382.604 112.415 373.761 128.674 364.977 147.882Z" fill="white"/>
<path d="M420.677 184.05C418.21 188.341 415.801 191.961 413.421 194.909C408.72 200.689 404.079 203.55 399.466 203.55C395.441 203.55 392.327 201.652 390.095 197.887C388.685 195.435 387.979 192.574 387.979 189.246C387.979 181.043 390.594 171.994 395.794 162.069C401.611 151.064 408.603 142.599 416.77 136.673C422.117 132.82 427.288 130.893 432.282 130.893C435.396 130.893 438.011 131.856 440.096 133.783C441.888 135.476 442.77 137.403 442.77 139.563C442.77 141.198 442.124 143.445 440.86 146.335C441.977 147.882 442.535 149.254 442.535 150.451C442.535 151.998 441.507 154.567 439.421 158.099C437.247 161.719 435.102 166.535 432.958 172.52C430.637 178.883 429.491 183.992 429.491 187.816C429.491 190.91 430.431 193.479 432.282 195.464C432.811 195.989 434.338 196.836 436.865 198.004C438.716 198.879 439.656 200.456 439.656 202.674C439.656 204.075 439.127 205.214 438.099 206.119C436.982 207.082 435.69 207.549 434.191 207.549C430.167 207.549 426.7 205.768 423.821 202.236C421.441 199.346 420.237 195.727 420.237 191.377C420.237 189.888 420.384 187.466 420.677 184.05ZM434.632 147.561C433.751 145.927 432.781 144.73 431.724 143.971C430.666 143.183 429.55 142.803 428.375 142.803C422.705 142.803 416.564 147.707 409.954 157.545C402.669 168.404 399.026 177.628 399.026 185.159C399.026 186.998 399.378 188.4 400.083 189.363C400.788 190.326 401.846 190.793 403.256 190.793C406.84 190.793 410.983 187.028 415.742 179.467C418.415 175.322 421.735 169.221 425.672 161.164C428.286 155.91 430.167 152.436 431.371 150.743C431.988 149.897 433.046 148.816 434.632 147.561Z" fill="white"/>
<path d="M517.185 101.235C522.179 101.235 525.998 103.015 528.671 106.548C530.816 109.35 531.903 112.765 531.903 116.764C531.903 123.945 529.494 132.119 524.647 141.285C520.416 149.196 515.128 156.289 508.782 162.595C504.611 166.652 501.35 168.696 498.97 168.696C497.413 168.696 495.944 167.907 494.622 166.36C493.653 165.251 493.182 163.996 493.182 162.595C493.182 159.997 495.445 157.048 499.998 153.72C506.403 148.991 511.485 143.825 515.304 138.191C520.886 130.046 523.677 123.187 523.677 117.553C523.677 115.276 523.178 113.553 522.179 112.444C521.18 111.335 519.682 110.78 517.655 110.78C513.571 110.78 507.754 113.729 500.233 119.654C491.684 126.31 482.636 135.359 473.117 146.831C460.984 161.398 451.759 175.731 445.443 189.859C438.891 204.513 435.63 217.007 435.63 227.341C435.63 232.303 437.07 236.507 439.978 239.98C443.181 243.892 447.088 245.848 451.7 245.848C459.75 245.848 469.856 239.63 482.048 227.224C485.691 223.458 490.127 217.97 495.327 210.818C498.764 206.235 500.938 202.966 501.908 201.068C503.024 198.938 504.317 197.857 505.815 197.857C507.46 197.857 508.254 198.646 508.254 200.193C508.254 203.521 504.082 210.993 495.768 222.612C488.834 232.303 481.226 240.214 472.882 246.344C463.51 253.233 454.638 256.648 446.324 256.648C437.628 256.648 430.871 252.766 426.112 245.001C423.057 240.039 421.529 234.405 421.529 228.041C421.529 212.074 429.108 191.932 444.297 167.586C457.253 146.89 470.914 130.222 485.28 117.553C497.677 106.664 508.312 101.235 517.185 101.235Z" fill="white"/>
<path d="M555.232 172.344C561.342 172.344 564.398 176.052 564.398 183.437C564.398 193.275 559.815 205.739 550.678 220.802C540.719 237.149 531.083 245.322 521.77 245.322C517.451 245.322 514.308 243.337 512.281 239.338C511.253 237.353 510.724 234.93 510.724 232.128C510.724 222.67 513.985 212.395 520.536 201.302C526.647 191.027 533.815 183.028 542.07 177.336C546.918 174.008 551.295 172.344 555.232 172.344ZM543.627 214.263C541.776 212.774 540.836 211.636 540.836 210.818C540.836 210.235 542.012 208.6 544.421 205.943C551.119 198.471 554.468 192.457 554.468 187.874C554.468 187.29 554.292 186.707 553.91 186.093C553.322 184.984 552.382 184.43 551.119 184.43C548.739 184.43 545.243 186.736 540.631 191.319C534.667 197.245 530.143 203.345 526.999 209.622C523.356 216.803 521.535 222.758 521.535 227.487C521.535 228.742 521.858 229.851 522.534 230.814C523.503 232.157 524.737 232.799 526.206 232.799C529.79 232.799 533.609 230.143 537.693 224.801C539.485 222.582 540.925 220.306 542.041 217.912C543.187 215.547 543.715 214.321 543.627 214.263Z" fill="white"/>
<path d="M583.496 207.053C581.263 212.833 579.589 217.474 578.472 221.035C577.356 224.597 576.798 227.049 576.798 228.479C576.798 230.318 577.679 231.252 579.471 231.252C582.145 231.252 585.611 228.742 589.842 223.721C591.839 221.269 594.836 216.89 598.773 210.527C600.33 208.016 601.975 206.761 603.679 206.761C605.618 206.761 606.587 207.695 606.587 209.534C606.587 212.716 602.915 219.138 595.541 228.829C587.873 238.959 580.764 244.038 574.212 244.038C571.392 244.038 569.071 242.87 567.279 240.477C566.016 238.784 565.37 236.711 565.37 234.259C565.37 230.114 566.633 224.392 569.159 217.065C571.686 209.738 575.446 200.835 580.441 190.326C593.25 163.646 606.293 141.635 619.631 124.325C630.266 110.43 639.08 103.483 646.072 103.483C648.304 103.483 650.126 104.329 651.536 106.022C653.034 107.715 653.769 109.671 653.769 111.89C653.769 122.252 644.456 139.475 625.859 163.587C617.516 174.3 607.557 185.043 595.952 195.756C592.926 198.558 588.755 202.324 583.496 207.053ZM591.399 189.421C606.881 176.256 620.718 159.617 632.91 139.504C639.226 129.083 642.399 122.165 642.399 118.779C642.399 117.144 641.694 116.327 640.284 116.327C636.2 116.327 628.738 124.413 617.957 140.614C609.055 153.925 600.183 170.184 591.399 189.421Z" fill="white"/>
<path d="M647.095 225.56C644.627 229.851 642.218 233.471 639.839 236.419C635.138 242.199 630.496 245.06 625.884 245.06C621.859 245.06 618.745 243.162 616.512 239.397C615.102 236.945 614.397 234.084 614.397 230.756C614.397 222.553 617.012 213.504 622.212 203.579C628.029 192.574 635.021 184.108 643.188 178.183C648.535 174.329 653.705 172.403 658.7 172.403C661.814 172.403 664.428 173.366 666.514 175.293C668.306 176.986 669.188 178.912 669.188 181.073C669.188 182.707 668.541 184.955 667.278 187.845C668.394 189.392 668.953 190.764 668.953 191.961C668.953 193.508 667.924 196.077 665.839 199.609C663.665 203.229 661.52 208.045 659.375 214.029C657.054 220.393 655.909 225.502 655.909 229.326C655.909 232.42 656.849 234.989 658.7 236.974C659.228 237.499 660.756 238.346 663.283 239.513C665.133 240.389 666.073 241.965 666.073 244.184C666.073 245.585 665.545 246.724 664.516 247.628C663.4 248.592 662.107 249.059 660.609 249.059C656.584 249.059 653.118 247.278 650.239 243.746C647.859 240.856 646.654 237.236 646.654 232.887C646.654 231.398 646.801 228.975 647.095 225.56ZM661.05 189.071C660.168 187.436 659.199 186.239 658.141 185.48C657.084 184.692 655.967 184.313 654.792 184.313C649.122 184.313 642.982 189.217 636.372 199.054C629.086 209.913 625.443 219.138 625.443 226.669C625.443 228.508 625.796 229.909 626.501 230.873C627.206 231.836 628.264 232.303 629.674 232.303C633.258 232.303 637.4 228.537 642.16 220.977C644.833 216.832 648.153 210.731 652.089 202.674C654.704 197.42 656.584 193.946 657.789 192.253C658.406 191.406 659.493 190.326 661.05 189.071Z" fill="white"/>
<path opacity="0.49" d="M70.28 354.848C88.5008 354.848 103.272 340.171 103.272 322.066C103.272 303.961 88.5008 289.284 70.28 289.284C52.0591 289.284 37.2882 303.961 37.2882 322.066C37.2882 340.171 52.0591 354.848 70.28 354.848Z" fill="white"/>
<path opacity="0.49" d="M591.391 364.393C609.612 364.393 624.383 349.716 624.383 331.611C624.383 313.507 609.612 298.83 591.391 298.83C573.17 298.83 558.399 313.507 558.399 331.611C558.399 349.716 573.17 364.393 591.391 364.393Z" fill="white"/>
<path opacity="0.49" d="M145.87 276.382C154.989 276.382 162.381 269.037 162.381 259.976C162.381 250.916 154.989 243.571 145.87 243.571C136.752 243.571 129.36 250.916 129.36 259.976C129.36 269.037 136.752 276.382 145.87 276.382Z" fill="white"/>
<path opacity="0.49" d="M321.966 331.641C331.085 331.641 338.477 324.296 338.477 315.235C338.477 306.175 331.085 298.83 321.966 298.83C312.848 298.83 305.456 306.175 305.456 315.235C305.456 324.296 312.848 331.641 321.966 331.641Z" fill="white"/>
<path opacity="0.49" d="M715.894 312.666C725.013 312.666 732.405 305.321 732.405 296.261C732.405 287.201 725.013 279.856 715.894 279.856C706.775 279.856 699.383 287.201 699.383 296.261C699.383 305.321 706.775 312.666 715.894 312.666Z" fill="white"/>
<path opacity="0.49" d="M50.2426 220.481C55.6456 220.481 60.0256 216.129 60.0256 210.76C60.0256 205.392 55.6456 201.039 50.2426 201.039C44.8397 201.039 40.4597 205.392 40.4597 210.76C40.4597 216.129 44.8397 220.481 50.2426 220.481Z" fill="white"/>
<path opacity="0.49" d="M790.019 351.053C795.422 351.053 799.802 346.701 799.802 341.332C799.802 335.964 795.422 331.612 790.019 331.612C784.616 331.612 780.236 335.964 780.236 341.332C780.236 346.701 784.616 351.053 790.019 351.053Z" fill="white"/>
<path opacity="0.49" d="M500.935 305.982C506.338 305.982 510.718 301.63 510.718 296.261C510.718 290.893 506.338 286.54 500.935 286.54C495.532 286.54 491.152 290.893 491.152 296.261C491.152 301.63 495.532 305.982 500.935 305.982Z" fill="white"/>
<path opacity="0.49" d="M819.983 237.587C825.386 237.587 829.766 233.235 829.766 227.866C829.766 222.498 825.386 218.146 819.983 218.146C814.58 218.146 810.2 222.498 810.2 227.866C810.2 233.235 814.58 237.587 819.983 237.587Z" fill="white"/>
<path opacity="0.49" d="M848.1 310.244C851.978 310.244 855.121 307.12 855.121 303.267C855.121 299.414 851.978 296.29 848.1 296.29C844.222 296.29 841.079 299.414 841.079 303.267C841.079 307.12 844.222 310.244 848.1 310.244Z" fill="white"/>
<path opacity="0.49" d="M219.845 299.063C225.248 299.063 229.628 294.711 229.628 289.343C229.628 283.974 225.248 279.622 219.845 279.622C214.442 279.622 210.062 283.974 210.062 289.343C210.062 294.711 214.442 299.063 219.845 299.063Z" fill="white"/>
<path opacity="0.49" d="M279.367 253.934C282.06 253.934 284.244 251.764 284.244 249.088C284.244 246.412 282.06 244.242 279.367 244.242C276.674 244.242 274.49 246.412 274.49 249.088C274.49 251.764 276.674 253.934 279.367 253.934Z" fill="white"/>
<path opacity="0.49" d="M124.485 177.19C127.178 177.19 129.362 175.021 129.362 172.344C129.362 169.668 127.178 167.499 124.485 167.499C121.792 167.499 119.608 169.668 119.608 172.344C119.608 175.021 121.792 177.19 124.485 177.19Z" fill="white"/>
<path opacity="0.49" d="M403.902 289.343C406.595 289.343 408.779 287.173 408.779 284.497C408.779 281.821 406.595 279.651 403.902 279.651C401.209 279.651 399.025 281.821 399.025 284.497C399.025 287.173 401.209 289.343 403.902 289.343Z" fill="white"/>
<path opacity="0.49" d="M743.277 196.106C745.97 196.106 748.154 193.937 748.154 191.26C748.154 188.584 745.97 186.415 743.277 186.415C740.584 186.415 738.4 188.584 738.4 191.26C738.4 193.937 740.584 196.106 743.277 196.106Z" fill="white"/>
</g>
<defs>
<clipPath id="clip0_0_3">
<rect width="876" height="408" fill="white"/>
</clipPath>
</defs>
</svg>
